<svg class="site-logo" width="auto" viewBox="0 0 100 92" xmlns="http://www.w3.org/2000/svg" xmlns:xlink="http://www.w3.org/1999/xlink"><title>Shape</title><defs><linearGradient x1="0%" y1="50%" y2="50%" id="b"><stop stop-color="#1F1F21" stop-opacity=".4" offset="0%"/><stop stop-color="#1F1F21" stop-opacity=".4" offset="26.134%"/><stop stop-color="#1F1F21" stop-opacity=".2" offset="26.373%"/><stop stop-color="#1F1F21" stop-opacity=".2" offset="75.107%"/><stop stop-color="#1F1F21" stop-opacity="0" offset="75.735%"/><stop stop-color="#1F1F21" stop-opacity="0" offset="100%"/></linearGradient><path d="M50.018 79.51L27.242 90.898a1.97 1.97 0 0 1-1.763 0l-23.64-11.82a1.972 1.972 0 0 1-1.09-1.764V2.454c0-.684.355-1.317.934-1.677A1.987 1.987 0 0 1 3.6.69l22.76 11.38L49.12.69a1.977 1.977 0 0 1 1.705-.028L75.537 12.07 96.34.723a1.97 1.97 0 0 1 2.912 1.73v74.861a1.97 1.97 0 0 1-1.027 1.73l-21.67 11.82a1.976 1.976 0 0 1-1.767.061L50.049 79.507l-.031.003zm0 0l.017-.009.014.006c.394-.035.713-.171.958-.452.837-.957 20.483-23.658 20.483-41.973 0-11.697-9.64-21.214-21.49-21.214-11.85 0-21.49 9.517-21.49 21.214 0 18.714 19.646 41.032 20.483 41.973a1.347 1.347 0 0 0 1.025.455zm-7.004-51.822c-.589.064-1.03.56-1.018 1.144v19.155c-.006.406.21.784.567.99.356.204.797.204 1.153 0 .356-.206.573-.584.567-.99V28.832a1.118 1.118 0 0 0-.335-.814 1.152 1.152 0 0 0-.827-.33 1.16 1.16 0 0 0-.107 0zm13.721 0c-.589.064-1.03.56-1.018 1.144v19.155c-.006.406.21.784.567.99.356.204.797.204 1.153 0 .356-.206.573-.584.567-.99V28.832a1.118 1.118 0 0 0-.335-.814 1.152 1.152 0 0 0-.826-.33 1.16 1.16 0 0 0-.108 0zm-17.151 5.07c-.59.064-1.031.56-1.018 1.145v9.014c-.006.406.21.784.567.989.356.205.796.205 1.152 0 .357-.205.573-.583.567-.99v-9.013a1.118 1.118 0 0 0-.334-.815 1.152 1.152 0 0 0-.827-.33 1.16 1.16 0 0 0-.107 0zm20.582 0c-.59.064-1.031.56-1.019 1.145v9.014c-.005.406.211.784.567.989.357.205.797.205 1.153 0s.573-.583.567-.99v-9.013a1.118 1.118 0 0 0-.335-.815 1.152 1.152 0 0 0-.826-.33 1.16 1.16 0 0 0-.107 0zm-13.721.564c-.59.064-1.032.56-1.019 1.144v7.887c-.006.407.211.785.567.99.356.204.797.204 1.153 0 .356-.205.573-.583.567-.99v-7.887a1.118 1.118 0 0 0-.335-.814 1.152 1.152 0 0 0-.826-.33 1.16 1.16 0 0 0-.107 0zm6.86 0c-.589.064-1.031.56-1.018 1.144v7.887c-.006.407.21.785.567.99.356.204.796.204 1.153 0 .356-.205.572-.583.567-.99v-7.887a1.118 1.118 0 0 0-.335-.814 1.152 1.152 0 0 0-.827-.33 1.16 1.16 0 0 0-.107 0zm-17.08 2.817a.579.579 0 0 0-.071.017.565.565 0 0 0-.447.564v3.38a.562.562 0 0 0 .283.494.58.58 0 0 0 .577 0 .562.562 0 0 0 .283-.494v-3.38a.56.56 0 0 0-.179-.43.577.577 0 0 0-.446-.151zm13.65 0c-.59.063-1.031.56-1.019 1.144v2.253c-.005.407.211.785.567.99.357.204.797.204 1.153 0 .357-.205.573-.583.567-.99v-2.253a1.118 1.118 0 0 0-.334-.814 1.152 1.152 0 0 0-.827-.33 1.16 1.16 0 0 0-.107 0zm13.793 0a.579.579 0 0 0-.072.017.565.565 0 0 0-.447.564v3.38a.562.562 0 0 0 .284.494.58.58 0 0 0 .576 0 .562.562 0 0 0 .284-.494v-3.38a.56.56 0 0 0-.18-.43.577.577 0 0 0-.445-.151z" id="a"/></defs><g fill="none" fill-rule="evenodd"><use fill="#FF2D55" xlink:href="#a"/><use fill="url(#b)" xlink:href="#a"/></g></svg>
