<svg width="auto" viewBox="0 0 126 190" xmlns="http://www.w3.org/2000/svg"><title>Shape</title><path d="M63 .545C28.322.545.107 28.762.107 63.44c0 55.482 57.496 121.65 59.945 124.44A3.921 3.921 0 0 0 63 189.234c1.219-.082 2.201-.486 2.948-1.351 2.449-2.838 59.945-70.142 59.945-124.441C125.893 28.76 97.678.545 63 .545zM42.556 35.588a3.343 3.343 0 0 0-2.98 3.393v56.79a3.34 3.34 0 0 0 1.659 2.933 3.352 3.352 0 0 0 3.374 0 3.34 3.34 0 0 0 1.66-2.933v-56.79a3.338 3.338 0 0 0-.98-2.415 3.35 3.35 0 0 0-2.42-.978 3.352 3.352 0 0 0-.313 0zm40.156 0a3.343 3.343 0 0 0-2.98 3.393v56.79a3.34 3.34 0 0 0 1.659 2.933 3.352 3.352 0 0 0 3.374 0 3.34 3.34 0 0 0 1.659-2.933v-56.79a3.338 3.338 0 0 0-.98-2.415 3.35 3.35 0 0 0-2.419-.978 3.352 3.352 0 0 0-.313 0zM32.517 50.621a3.343 3.343 0 0 0-2.98 3.393v26.724a3.34 3.34 0 0 0 1.659 2.933 3.352 3.352 0 0 0 3.374 0 3.34 3.34 0 0 0 1.66-2.933V54.014a3.338 3.338 0 0 0-.98-2.415 3.35 3.35 0 0 0-2.42-.978 3.352 3.352 0 0 0-.313 0zm60.234 0a3.343 3.343 0 0 0-2.98 3.393v26.724a3.34 3.34 0 0 0 1.659 2.933 3.352 3.352 0 0 0 3.374 0 3.34 3.34 0 0 0 1.659-2.933V54.014a3.338 3.338 0 0 0-.98-2.415 3.35 3.35 0 0 0-2.419-.978 3.352 3.352 0 0 0-.313 0zm-40.156 1.67a3.343 3.343 0 0 0-2.98 3.393v23.384a3.34 3.34 0 0 0 1.659 2.933 3.352 3.352 0 0 0 3.374 0 3.34 3.34 0 0 0 1.66-2.933V55.684a3.338 3.338 0 0 0-.98-2.415 3.35 3.35 0 0 0-2.42-.978 3.352 3.352 0 0 0-.313 0zm20.078 0a3.343 3.343 0 0 0-2.98 3.393v23.384a3.34 3.34 0 0 0 1.659 2.933 3.352 3.352 0 0 0 3.374 0 3.34 3.34 0 0 0 1.659-2.933V55.684a3.338 3.338 0 0 0-.98-2.415 3.35 3.35 0 0 0-2.419-.978 3.352 3.352 0 0 0-.313 0zm-49.986 8.352c-.07.013-.14.03-.21.052a1.671 1.671 0 0 0-1.306 1.67v10.022a1.67 1.67 0 0 0 .83 1.466 1.676 1.676 0 0 0 1.686 0 1.67 1.67 0 0 0 .83-1.466V62.365a1.669 1.669 0 0 0-1.83-1.722zm39.947 0a3.343 3.343 0 0 0-2.98 3.392v6.682a3.34 3.34 0 0 0 1.659 2.932 3.352 3.352 0 0 0 3.374 0 3.34 3.34 0 0 0 1.659-2.932v-6.682a3.338 3.338 0 0 0-.98-2.414 3.35 3.35 0 0 0-2.419-.978 3.352 3.352 0 0 0-.313 0zm40.365 0c-.071.013-.14.03-.21.052a1.671 1.671 0 0 0-1.307 1.67v10.022a1.67 1.67 0 0 0 .83 1.466 1.676 1.676 0 0 0 1.687 0 1.67 1.67 0 0 0 .83-1.466V62.365a1.669 1.669 0 0 0-1.83-1.722z" fill="#FF2D55" fill-rule="evenodd"/></svg>
