<svg style="position: absolute; width: 0; height: 0; overflow: hidden;" version="1.1" xmlns="http://www.w3.org/2000/svg" xmlns:xlink="http://www.w3.org/1999/xlink">
<defs>
<symbol id="icon-instagram-fill" viewBox="0 0 32 32">
<title>instagram-fill</title>
<path class="path1" d="M9.6 1.28c-4.588 0-8.32 3.732-8.32 8.32v12.8c0 4.588 3.732 8.32 8.32 8.32h12.8c4.588 0 8.32-3.732 8.32-8.32v-12.8c0-4.588-3.732-8.32-8.32-8.32h-12.8zM24.32 6.4c0.707 0 1.28 0.573 1.28 1.28s-0.573 1.28-1.28 1.28c-0.707 0-1.28-0.573-1.28-1.28s0.573-1.28 1.28-1.28zM16 8.32c4.235 0 7.68 3.445 7.68 7.68s-3.445 7.68-7.68 7.68c-4.235 0-7.68-3.445-7.68-7.68s3.445-7.68 7.68-7.68zM16 9.6c-3.529 0-6.4 2.871-6.4 6.4s2.871 6.4 6.4 6.4c3.529 0 6.4-2.871 6.4-6.4s-2.871-6.4-6.4-6.4z"></path>
</symbol>
<symbol id="icon-instagram" viewBox="0 0 32 32">
<title>instagram</title>
<path class="path1" d="M9.6 1.28c-4.587 0-8.32 3.733-8.32 8.32v12.8c0 4.587 3.733 8.32 8.32 8.32h12.8c4.587 0 8.32-3.733 8.32-8.32v-12.8c0-4.587-3.733-8.32-8.32-8.32h-12.8zM9.6 2.56h12.8c3.895 0 7.040 3.145 7.040 7.040v12.8c0 3.895-3.145 7.040-7.040 7.040h-12.8c-3.895 0-7.040-3.145-7.040-7.040v-12.8c0-3.895 3.145-7.040 7.040-7.040zM24.32 6.4c-0.707 0-1.28 0.573-1.28 1.28s0.573 1.28 1.28 1.28c0.707 0 1.28-0.573 1.28-1.28s-0.573-1.28-1.28-1.28zM16 8.32c-4.234 0-7.68 3.446-7.68 7.68s3.446 7.68 7.68 7.68c4.234 0 7.68-3.446 7.68-7.68s-3.446-7.68-7.68-7.68zM16 9.6c3.542 0 6.4 2.858 6.4 6.4s-2.858 6.4-6.4 6.4c-3.542 0-6.4-2.858-6.4-6.4s2.858-6.4 6.4-6.4z"></path>
</symbol>
<symbol id="icon-facebook-filled" viewBox="0 0 32 32">
<title>facebook-filled</title>
<path class="path1" d="M25.6 0h-19.2c-3.529 0-6.4 2.871-6.4 6.4v19.2c0 3.529 2.871 6.4 6.4 6.4h19.2c3.529 0 6.4-2.871 6.4-6.4v-19.2c0-3.529-2.871-6.4-6.4-6.4zM24.96 10.88h-1.92c-1.373 0-1.92 0.323-1.92 1.28v1.92h3.84l-0.64 3.84h-3.2v12.8h-4.48v-12.8h-1.92v-3.84h1.92v-1.92c0-2.993 1.012-5.12 4.48-5.12 1.857 0 3.84 0.64 3.84 0.64v3.2z"></path>
</symbol>
<symbol id="icon-facebook" viewBox="0 0 32 32">
<title>facebook</title>
<path class="path1" d="M6.4 0c-3.528 0-6.4 2.872-6.4 6.4v19.2c0 3.528 2.872 6.4 6.4 6.4h19.2c3.528 0 6.4-2.872 6.4-6.4v-19.2c0-3.528-2.872-6.4-6.4-6.4h-19.2zM6.4 1.28h19.2c2.836 0 5.12 2.284 5.12 5.12v19.2c0 2.836-2.284 5.12-5.12 5.12h-3.84v-12.16h3.1l0.1-0.54 0.64-3.84 0.12-0.74h-3.96v-1.28c0-0.357 0.040-0.382 0.16-0.46s0.484-0.18 1.12-0.18h2.56v-4.3l-0.44-0.14c0 0-2.035-0.68-4.040-0.68-1.865 0-3.244 0.623-4.060 1.7s-1.060 2.491-1.060 4.060v1.28h-1.92v5.12h1.92v12.16h-9.6c-2.836 0-5.12-2.284-5.12-5.12v-19.2c0-2.836 2.284-5.12 5.12-5.12zM21.12 7.68c1.391 0 2.673 0.329 3.2 0.48v2.080h-1.28c-0.737 0-1.323 0.057-1.82 0.38s-0.74 0.939-0.74 1.54v2.56h3.72l-0.44 2.56h-3.28v13.44h-3.2v-13.44h-1.92v-2.56h1.92v-2.56c0-1.425 0.243-2.565 0.8-3.3s1.437-1.18 3.040-1.18z"></path>
</symbol>
<symbol id="icon-google-plus-filled" viewBox="0 0 32 32">
<title>google-plus-filled</title>
<path class="path1" d="M6.66 0c-3.367 0-6.159 2.513-6.6 5.76h31.88c-0.441-3.247-3.233-5.76-6.6-5.76h-18.68zM0 7.040v18.3c0 3.671 2.987 6.66 6.66 6.66h18.68c3.673 0 6.66-2.988 6.66-6.66v-18.3h-32zM11.88 10.24h4.74l-1.48 0.78h-1.42c0.531 0.524 1.64 1.432 1.64 3.22 0 1.738-0.97 2.588-1.94 3.36-0.299 0.307-0.66 0.645-0.66 1.16s0.366 0.813 0.62 1.020l0.82 0.66c1.015 0.868 1.94 1.662 1.94 3.28 0 2.209-2.11 4.44-6.080 4.44-3.348 0-4.96-1.621-4.96-3.36 0-0.844 0.414-2.036 1.78-2.86 1.427-0.893 3.379-1.007 4.42-1.080-0.324-0.419-0.7-0.868-0.7-1.6 0-0.394 0.122-0.635 0.24-0.92-0.257 0.022-0.51 0.040-0.74 0.040-2.447 0-3.84-1.846-3.84-3.68 0-1.082 0.484-2.297 1.48-3.16 1.311-1.108 2.896-1.3 4.14-1.3zM10.42 11.040c-0.6 0-1.248 0.304-1.62 0.78-0.392 0.487-0.52 1.111-0.52 1.72 0 1.575 0.918 4.18 2.9 4.18 0.582 0 1.208-0.286 1.58-0.66 0.527-0.543 0.56-1.281 0.56-1.7 0-1.696-0.984-4.32-2.9-4.32zM21.76 15.36h2.56v3.2h3.2v2.56h-3.2v3.2h-2.56v-3.2h-3.2v-2.56h3.2v-3.2zM11.54 21.52c-0.207 0-1.449 0.029-2.42 0.36-0.509 0.189-1.98 0.753-1.98 2.42s1.591 2.88 4.060 2.88c2.217 0 3.399-1.085 3.4-2.54 0-1.199-0.767-1.832-2.52-3.1-0.185-0.021-0.307-0.020-0.54-0.020z"></path>
</symbol>
<symbol id="icon-google-plus" viewBox="0 0 32 32">
<title>google-plus</title>
<path class="path1" d="M6.66 0c-3.479 0-6.342 2.711-6.62 6.12-0.007 0.007-0.013 0.013-0.020 0.020-0.032 0.073-0.050 0.158-0.050 0.248 0 0.069 0.011 0.135 0.031 0.197-0.001-0.002-0.001 0.002-0.001 0.005s0 0.007 0 0.011c-0 0.020 0 0.039 0 0.059v18.68c0 3.658 3 6.66 6.66 6.66h18.68c3.661 0 6.66-3.001 6.66-6.66v-18.68c0-0.040 0.001-0.080 0-0.12-0-0.007 0-0.013 0-0.020 0.007-0.036 0.012-0.078 0.012-0.121 0-0.071-0.012-0.139-0.033-0.203-0.006-0.020-0.012-0.040-0.020-0.060-0.267-3.414-3.133-6.136-6.618-6.136h-18.68zM6.66 1.28h18.68c2.653 0 4.867 1.948 5.3 4.48h-29.28c0.433-2.532 2.647-4.48 5.3-4.48zM1.28 7.040h29.44v18.3c0 2.96-2.417 5.38-5.38 5.38h-18.68c-2.962 0-5.38-2.421-5.38-5.38v-18.3zM11.88 10.24c-1.244 0-2.829 0.193-4.14 1.3-0.996 0.863-1.48 2.078-1.48 3.16 0 1.833 1.393 3.68 3.84 3.68 0.23 0 0.483-0.018 0.74-0.040-0.118 0.285-0.24 0.526-0.24 0.92 0 0.732 0.376 1.161 0.7 1.58-1.041 0.074-2.993 0.208-4.42 1.1-1.366 0.824-1.78 2.016-1.78 2.86 0 1.739 1.612 3.36 4.96 3.36 3.97 0 6.080-2.231 6.080-4.44 0-1.617-0.925-2.411-1.94-3.28l-0.82-0.66c-0.254-0.207-0.62-0.504-0.62-1.020 0-0.515 0.361-0.853 0.66-1.16 0.97-0.771 1.94-1.622 1.94-3.36 0-1.788-1.109-2.696-1.64-3.22h1.42l1.48-0.78h-4.74zM10.42 11.040c1.916 0 2.9 2.624 2.9 4.32 0 0.419-0.033 1.157-0.56 1.7-0.372 0.374-0.998 0.66-1.58 0.66-1.982 0-2.9-2.605-2.9-4.18 0-0.609 0.128-1.233 0.52-1.72 0.372-0.476 1.020-0.78 1.62-0.78zM21.76 15.36v3.2h-3.2v2.56h3.2v3.2h2.56v-3.2h3.2v-2.56h-3.2v-3.2h-2.56zM11.54 21.52c0.233 0 0.355-0.002 0.54 0.020 1.753 1.268 2.52 1.901 2.52 3.1-0.001 1.455-1.183 2.54-3.4 2.54-2.469 0-4.060-1.212-4.060-2.88s1.471-2.231 1.98-2.42c0.971-0.33 2.213-0.36 2.42-0.36z"></path>
</symbol>
<symbol id="icon-music" viewBox="0 0 32 32">
<title>music</title>
<path class="path1" d="M24.384 10.88c-4.48 0-3.712-1.92-6.912-1.92-0.512 0-0.768 0.192-0.768 1.024 0 1.6 0 12.096 0 13.76s0 5.056-4.352 5.056c-4.736 0-5.248-2.24-5.248-3.776 0-2.24 1.6-3.264 5.248-3.264 2.496 0 3.072-0.96 3.072-2.368 0-4.992 0-14.208 0-14.976 0-0.64 0.256-1.216 1.28-1.216 4.224 0 3.2 1.92 7.68 1.92 0.768 0 1.216 0.256 1.216 1.216 0 0.64 0 1.792 0 3.392 0 1.216-1.216 1.152-1.216 1.152z"></path>
</symbol>
<symbol id="icon-search" viewBox="0 0 32 32">
<title>search</title>
<path class="path1" d="M13.44 1.92c-6.001 0-10.88 4.879-10.88 10.88s4.879 10.88 10.88 10.88c2.374 0 4.57-0.766 6.36-2.060l8.42 8.4 1.8-1.8-8.32-8.34c1.635-1.904 2.62-4.378 2.62-7.080 0-6.001-4.879-10.88-10.88-10.88zM13.44 3.2c5.309 0 9.6 4.29 9.6 9.6s-4.291 9.6-9.6 9.6c-5.309 0-9.6-4.291-9.6-9.6s4.29-9.6 9.6-9.6z"></path>
</symbol>
<symbol id="icon-speech-bubble-fill" viewBox="0 0 32 32">
<title>speech-bubble-fill</title>
<path class="path1" d="M16 2.56c-8.116 0-14.72 5.742-14.72 12.8 0 3.96 2.134 7.722 5.729 10.137-0.085 0.674-0.426 2.305-1.772 4.214l-0.707 1.003 1.265 0.006c3.476 0 5.826-2.131 6.598-2.947 1.174 0.257 2.386 0.387 3.608 0.387 8.116 0 14.72-5.742 14.72-12.8s-6.604-12.8-14.72-12.8z"></path>
</symbol>
<symbol id="icon-speech-bubble" viewBox="0 0 32 32">
<title>speech-bubble</title>
<path class="path1" d="M16 2.6c-8.054 0-14.68 5.672-14.68 12.76 0 4.113 2.279 7.739 5.72 10.060-0.005 0.137 0.001 0.35-0.18 1.020-0.223 0.827-0.663 1.999-1.58 3.3l-0.66 0.92 1.14 0.020c3.953 0.017 6.243-2.581 6.6-3 1.168 0.259 2.381 0.44 3.64 0.44 8.054 0 14.68-5.672 14.68-12.76s-6.626-12.76-14.68-12.76zM16 3.8c7.498 0 13.48 5.217 13.48 11.56s-5.982 11.56-13.48 11.56c-1.281 0-2.527-0.154-3.7-0.44l-0.36-0.080-0.24 0.3c0 0-1.85 2.085-4.8 2.58 0.532-0.955 0.937-1.842 1.12-2.52 0.255-0.947 0.26-1.6 0.26-1.6v-0.32l-0.28-0.18c-3.345-2.121-5.48-5.496-5.48-9.3 0-6.343 5.981-11.56 13.48-11.56z"></path>
</symbol>
<symbol id="icon-twitter-fill" viewBox="0 0 32 32">
<title>twitter-fill</title>
<path class="path1" d="M32.039 6.68c-1.181 0.524-2.449 0.876-3.781 1.037 1.36-0.815 2.404-2.106 2.895-3.64-1.271 0.753-2.682 1.301-4.18 1.596-1.199-1.28-2.91-2.078-4.803-2.078-3.635 0-6.582 2.947-6.582 6.58 0 0.515 0.059 1.017 0.172 1.5-5.469-0.275-10.319-2.895-13.566-6.876-0.566 0.974-0.89 2.105-0.89 3.31 0 2.283 1.16 4.296 2.927 5.478-1.080-0.035-2.093-0.331-2.98-0.824 0 0.028 0 0.055 0 0.084 0 3.19 2.268 5.846 5.277 6.454-0.55 0.151-1.132 0.23-1.732 0.23-0.425 0-0.838-0.041-1.24-0.119 0.84 2.612 3.269 4.518 6.148 4.572-2.251 1.764-5.089 2.815-8.173 2.815-0.533 0-1.055-0.031-1.569-0.092 2.911 1.868 6.372 2.956 10.088 2.956 12.106 0 18.726-10.028 18.726-18.721 0-0.287-0.007-0.572-0.019-0.852 1.285-0.928 2.401-2.088 3.283-3.408z"></path>
</symbol>
<symbol id="icon-twitter" viewBox="0 0 32 32">
<title>twitter</title>
<path class="path1" d="M21.9 3.5c-3.827 0-6.94 3.114-6.94 6.94 0 0.231 0.058 0.454 0.080 0.68-4.732-0.452-8.917-2.733-11.76-6.22-0.118-0.149-0.3-0.244-0.503-0.244-0.237 0-0.445 0.129-0.555 0.321-0.599 1.031-0.942 2.214-0.942 3.483 0 1.538 0.551 2.946 1.4 4.1-0.164-0.072-0.344-0.113-0.5-0.2-0.087-0.047-0.19-0.075-0.3-0.075-0.352 0-0.637 0.283-0.64 0.634v0.080c0 2.357 1.22 4.404 3.020 5.66-0.020-0.004-0.040 0.004-0.060 0-0.033-0.006-0.070-0.009-0.109-0.009-0.353 0-0.64 0.287-0.64 0.64 0 0.068 0.010 0.133 0.030 0.194 0.713 2.218 2.538 3.916 4.799 4.535-1.8 1.070-3.888 1.7-6.14 1.7-0.487 0-0.955-0.024-1.42-0.080-0.026-0.004-0.055-0.006-0.085-0.006-0.353 0-0.64 0.287-0.64 0.64 0 0.23 0.121 0.431 0.303 0.544 2.889 1.854 6.319 2.942 10.003 2.942 5.973 0 10.656-2.494 13.8-6.060s4.78-8.195 4.78-12.52c0-0.184-0.015-0.36-0.020-0.54 1.173-0.896 2.219-1.951 3.040-3.18 0.069-0.101 0.111-0.226 0.111-0.36 0-0.354-0.287-0.64-0.64-0.64-0.098 0-0.191 0.022-0.275 0.062-0.326 0.145-0.712 0.162-1.056 0.278 0.454-0.607 0.844-1.262 1.080-2 0.018-0.057 0.029-0.123 0.029-0.191 0-0.354-0.287-0.64-0.64-0.64-0.122 0-0.235 0.034-0.332 0.093-1.090 0.645-2.299 1.101-3.577 1.378-1.241-1.159-2.873-1.94-4.7-1.94zM21.9 4.78c1.633 0 3.108 0.698 4.14 1.8 0.117 0.121 0.28 0.195 0.46 0.195 0.049 0 0.098-0.006 0.144-0.016 0.831-0.163 1.624-0.407 2.396-0.719-0.446 0.601-0.995 1.114-1.64 1.5-0.215 0.106-0.36 0.324-0.36 0.575 0 0.354 0.287 0.64 0.64 0.64 0.049 0 0.098-0.006 0.144-0.016 0.636-0.077 1.207-0.336 1.816-0.499-0.547 0.593-1.147 1.128-1.8 1.6-0.159 0.118-0.262 0.305-0.262 0.516 0 0.015 0.001 0.031 0.002 0.046 0.011 0.259 0.020 0.514 0.020 0.778 0 4-1.535 8.342-4.46 11.66s-7.22 5.64-12.84 5.64c-2.553 0-4.962-0.566-7.14-1.56 2.701-0.206 5.189-1.163 7.2-2.74 0.147-0.118 0.241-0.298 0.241-0.5 0-0.347-0.276-0.629-0.62-0.64-2.111-0.039-3.878-1.264-4.821-3 0.034 0 0.066 0 0.1 0 0.631 0 1.257-0.079 1.84-0.24 0.269-0.080 0.462-0.325 0.462-0.615 0-0.305-0.213-0.56-0.498-0.624-2.282-0.461-3.989-2.315-4.384-4.621 0.644 0.223 1.306 0.397 2.020 0.42 0.011 0.001 0.025 0.001 0.038 0.001 0.354 0 0.64-0.287 0.64-0.64 0-0.227-0.118-0.426-0.296-0.54-1.524-1.018-2.523-2.752-2.523-4.722 0-0.731 0.189-1.4 0.44-2.040 3.199 3.513 7.679 5.845 12.74 6.1 0.011 0.001 0.023 0.001 0.036 0.001 0.353 0 0.64-0.287 0.64-0.64 0-0.050-0.006-0.099-0.017-0.145-0.096-0.41-0.159-0.851-0.159-1.296 0-3.134 2.524-5.66 5.66-5.66z"></path>
</symbol>
<symbol id="icon-marker-fill" viewBox="0 0 32 32">
<title>marker-fill</title>
<path class="path1" d="M16 0.64c-5.646 0-10.24 4.594-10.24 10.24 0 9.033 9.361 19.806 9.76 20.26 0.122 0.139 0.296 0.22 0.48 0.22 0.198-0.013 0.358-0.079 0.48-0.22 0.399-0.462 9.76-11.42 9.76-20.26 0-5.646-4.594-10.24-10.24-10.24zM16 7.68c2.12 0 3.84 1.72 3.84 3.84s-1.72 3.84-3.84 3.84c-2.12 0-3.84-1.72-3.84-3.84s1.72-3.84 3.84-3.84z"></path>
</symbol>
<symbol id="icon-email-fill" viewBox="0 0 32 32">
<title>email-fill</title>
<path class="path1" d="M0 4.48v1.78c1.928 1.678 12.985 11.317 13.86 12.080 0.9 0.784 1.798 0.86 2.14 0.86s1.24-0.076 2.14-0.86c0.908-0.791 12.609-10.991 13.86-12.080v-1.78h-32zM0 7.96v16.060l9.68-7.64c-3.137-2.731-7.612-6.62-9.68-8.42zM32 7.96c-1.953 1.699-6.499 5.651-9.68 8.42l9.68 7.62v-16.040zM10.66 17.24l-10.66 8.4v1.88h32v-1.9l-10.66-8.38c-1.24 1.079-2.133 1.862-2.36 2.060-1.227 1.068-2.494 1.18-2.98 1.18s-1.753-0.111-2.98-1.18c-0.225-0.196-1.118-0.978-2.36-2.060z"></path>
</symbol>
<symbol id="icon-email" viewBox="0 0 32 32">
<title>email</title>
<path class="path1" d="M0 4.48v23.040h32v-23.040h-32zM1.28 5.76h29.44v1.6c-0.249 0.217-11.472 10.007-12.52 10.92l-0.060 0.060c-0.83 0.723-1.681 0.86-2.14 0.86s-1.31-0.137-2.14-0.86c-0.239-0.208-1.947-1.684-3.18-2.76-3.656-3.191-9.212-8.056-9.4-8.22v-1.6zM1.28 9.060c1.11 0.969 5.048 4.395 8.4 7.32l-8.4 6.64v-13.96zM30.72 9.060v13.96l-8.4-6.64c3.352-2.925 7.29-6.351 8.4-7.32zM10.66 17.24c0.778 0.679 2.182 1.905 2.36 2.060l0.020 0.020c1.081 0.93 2.232 1.16 2.96 1.16 0.733 0 1.891-0.232 2.98-1.18 0.179-0.156 1.596-1.376 2.38-2.060l9.36 7.4v1.6h-29.44v-1.6l9.38-7.4z"></path>
</symbol>
<symbol id="icon-marker" viewBox="0 0 32 32">
<title>marker</title>
<path class="path1" d="M16 0.64c-5.656 0-10.24 4.584-10.24 10.24 0 4.678 2.471 9.705 4.9 13.6s4.86 6.66 4.86 6.66c0.118 0.133 0.289 0.217 0.48 0.217s0.362-0.084 0.479-0.216c0.001-0.001 2.432-2.823 4.861-6.741s4.9-8.933 4.9-13.52c0-5.656-4.584-10.24-10.24-10.24zM16 1.92c4.968 0 8.96 3.992 8.96 8.96 0 4.117-2.328 9.014-4.7 12.84-1.988 3.208-3.67 5.272-4.26 5.98-0.595-0.704-2.278-2.721-4.26-5.9-2.371-3.801-4.7-8.702-4.7-12.92 0-4.968 3.992-8.96 8.96-8.96zM16 7.040c-2.467 0-4.48 2.013-4.48 4.48s2.013 4.48 4.48 4.48c2.467 0 4.48-2.013 4.48-4.48s-2.013-4.48-4.48-4.48zM16 8.32c1.775 0 3.2 1.425 3.2 3.2s-1.425 3.2-3.2 3.2c-1.775 0-3.2-1.425-3.2-3.2s1.425-3.2 3.2-3.2z"></path>
</symbol>
<symbol id="icon-phone-fill" viewBox="0 0 32 32">
<title>phone-fill</title>
<path class="path1" d="M26.27 31.999h-0.040c-5.465-0.175-11.885-5.491-16.313-9.92s-9.743-10.851-9.916-16.294c-0.059-1.841 4.612-5.256 4.66-5.29 1.041-0.726 2.441-0.588 3.011 0.2 0.373 0.516 3.943 5.929 4.333 6.545 0.386 0.607 0.325 1.521-0.163 2.445-0.282 0.538-1.238 2.218-1.654 2.947 0.44 0.637 1.675 2.282 4.284 4.891 2.625 2.624 4.257 3.849 4.89 4.287 0.73-0.417 2.411-1.373 2.95-1.657 0.893-0.472 1.823-0.54 2.434-0.168 0.641 0.392 6.041 3.983 6.545 4.335 0.396 0.278 0.652 0.756 0.701 1.315 0.051 0.57-0.125 1.174-0.494 1.702-0.034 0.046-3.407 4.661-5.228 4.661z"></path>
</symbol>
<symbol id="icon-phone" viewBox="0 0 32 32">
<title>phone</title>
<path class="path1" d="M5.94 0c-0.422 0.042-0.858 0.206-1.28 0.5-0.501 0.35-1.6 1.22-2.62 2.2-0.51 0.49-0.986 1.003-1.36 1.5s-0.7 0.939-0.68 1.56c0.019 0.602 0.070 2.355 1.34 5.060s3.752 6.432 8.58 11.26c4.829 4.83 8.555 7.31 11.26 8.58s4.438 1.32 5.040 1.34c0.621 0.019 1.083-0.306 1.58-0.68s1.010-0.85 1.5-1.36c0.979-1.020 1.85-2.119 2.2-2.62 0.784-1.119 0.646-2.427-0.2-3.020-0.551-0.385-5.797-3.873-6.56-4.34-0.743-0.454-1.626-0.236-2.42 0.18-0.006 0.003-0.014-0.003-0.020 0-0.663 0.35-2.472 1.383-2.92 1.64-0.329-0.207-1.777-1.157-4.9-4.28-3.095-3.094-4.059-4.53-4.28-4.88 0.249-0.435 1.296-2.304 1.64-2.96 0.421-0.796 0.639-1.686 0.16-2.44-0.214-0.338-1.176-1.831-2.16-3.32s-1.924-2.893-2.16-3.22c-0.298-0.412-0.782-0.655-1.32-0.7-0.134-0.011-0.279-0.014-0.42 0zM6.060 1.3c0.063-0.003 0.124-0.007 0.18 0 0.222 0.026 0.38 0.113 0.4 0.14 0.125 0.173 1.137 1.713 2.12 3.2s1.983 3 2.16 3.28c0.058 0.091 0.075 0.602-0.22 1.16v0.020c-0.327 0.624-1.82 3.24-1.82 3.24l-0.18 0.32 0.18 0.32c0 0 1.112 1.873 4.68 5.44s5.46 4.7 5.46 4.7l0.32 0.18 0.32-0.18c0 0 2.615-1.511 3.24-1.84 0.554-0.293 1.077-0.263 1.18-0.2 0.526 0.321 6.12 4.048 6.48 4.3 0.066 0.046 0.349 0.552-0.12 1.22-0.274 0.393-1.139 1.52-2.060 2.48-0.461 0.48-0.954 0.914-1.36 1.22-0.398 0.3-0.736 0.415-0.74 0.42-0.004-0-0.016 0-0.020 0-0.626-0.020-2.021-0.037-4.54-1.22-2.535-1.191-6.15-3.568-10.9-8.32-4.749-4.75-7.129-8.364-8.32-10.9s-1.2-3.941-1.22-4.56c0 0.011 0.115-0.354 0.42-0.76s0.74-0.879 1.22-1.34c0.96-0.922 2.087-1.805 2.48-2.080 0.25-0.174 0.471-0.231 0.66-0.24z"></path>
</symbol>
<symbol id="icon-play-fill" viewBox="0 0 32 32">
<title>play-fill</title>
<path class="path1" d="M6.4 3.361v25.278l21.486-12.639-21.486-12.639z"></path>
</symbol>
<symbol id="icon-play" viewBox="0 0 32 32">
<title>play</title>
<path class="path1" d="M6.4 3.36v25.28l0.96-0.56 20.52-12.080-0.94-0.56-20.54-12.080zM7.68 5.6l17.66 10.4-17.66 10.4v-20.8z"></path>
</symbol>
</defs>
</svg>
